<svg width="163" height="51" viewBox="0 0 163 51" fill="none" xmlns="http://www.w3.org/2000/svg">
<path d="M13.0781 31.5625C12.4219 31.7083 11.8594 31.7812 11.3906 31.7812C10.8073 31.7812 10.4062 31.6146 10.1875 31.2812C9.96875 30.9375 9.85938 30.5625 9.85938 30.1562L9.875 25.1094H12.25V20.25H9.875V15.0312L2.26562 16.6719V20.25H0.65625V25.1094H2.34375L2.32812 30.9844C2.30729 35.1823 4.28646 37.2812 8.26562 37.2812C9.09896 37.2812 9.91667 37.1927 10.7188 37.0156C11.5208 36.849 12.1146 36.6771 12.5 36.5L13.0781 36.2344V31.5625ZM14.3281 28.4531C14.3281 25.7448 15.1667 23.651 16.8438 22.1719C18.5208 20.6927 20.8125 19.9531 23.7188 19.9531C26.6458 19.9531 28.9479 20.6927 30.625 22.1719C32.3021 23.651 33.1406 25.7448 33.1406 28.4531C33.1406 30.276 32.7396 31.8594 31.9375 33.2031C31.1458 34.5469 30.0417 35.5625 28.625 36.25C27.2188 36.9375 25.5885 37.2812 23.7344 37.2812C21.8802 37.2812 20.2448 36.9375 18.8281 36.25C17.4219 35.5625 16.3177 34.5469 15.5156 33.2031C14.724 31.8594 14.3281 30.276 14.3281 28.4531ZM21.5938 28.4844C21.5938 31.099 22.3073 32.4062 23.7344 32.4062C25.1615 32.4062 25.875 31.099 25.875 28.4844C25.875 27.9531 25.849 27.5052 25.7969 27.1406C25.7552 26.7656 25.6667 26.3854 25.5312 26C25.3958 25.6146 25.1771 25.3229 24.875 25.125C24.5729 24.9271 24.1927 24.8281 23.7344 24.8281C23.276 24.8281 22.8958 24.9271 22.5938 25.125C22.2917 25.3229 22.0729 25.6146 21.9375 26C21.8021 26.3854 21.7083 26.7656 21.6562 27.1406C21.6146 27.5052 21.5938 27.9531 21.5938 28.4844ZM43.9531 20.25H35.1562V25.1094H36.3438V32.2344H35.0469V37H45.3281V32.2344H43.9531V27.25C43.9531 26.7604 44.099 26.3438 44.3906 26C44.6927 25.6562 45.0885 25.4844 45.5781 25.4844C45.9531 25.4844 46.2812 25.6458 46.5625 25.9688C46.8438 26.2917 46.9844 26.7031 46.9844 27.2031V37H55.9531V32.2344H54.7031V26.375C54.7031 22.0833 52.9844 19.9375 49.5469 19.9375C48.3177 19.9375 47.2188 20.1771 46.25 20.6562C45.2917 21.125 44.526 21.8021 43.9531 22.6875V20.25ZM66.2344 37.2812C67.901 37.2812 69.3958 37.1094 70.7188 36.7656C72.0521 36.4219 73.4062 35.8385 74.7812 35.0156V31.5156H69.9844C69.9635 32.1302 69.7812 32.6198 69.4375 32.9844C69.0938 33.349 68.5469 33.5312 67.7969 33.5312C66.9427 33.5312 66.2656 33.1875 65.7656 32.5C65.276 31.8021 65.0312 30.9271 65.0312 29.875H74.4375C74.6354 29.9583 74.7552 29.9844 74.7969 29.9531C74.849 29.9115 74.9219 29.7396 75.0156 29.4375C75.0677 29.0521 75.0938 28.6823 75.0938 28.3281C75.0938 26.7656 74.7656 25.3594 74.1094 24.1094C73.4635 22.8594 72.4792 21.8542 71.1562 21.0938C69.8333 20.3229 68.276 19.9375 66.4844 19.9375C64.6094 19.9375 62.9688 20.3281 61.5625 21.1094C60.1667 21.8802 59.1094 22.9375 58.3906 24.2812C57.6719 25.6146 57.3125 27.1406 57.3125 28.8594C57.3125 30.3906 57.6927 31.7969 58.4531 33.0781C59.2135 34.3594 60.276 35.3802 61.6406 36.1406C63.0156 36.901 64.5469 37.2812 66.2344 37.2812ZM65.0625 26.75C65.0625 26.1146 65.2031 25.5469 65.4844 25.0469C65.7656 24.5365 66.1875 24.2812 66.75 24.2812C67.1354 24.2812 67.4531 24.375 67.7031 24.5625C67.9531 24.7396 68.125 25 68.2188 25.3438C68.3125 25.6771 68.3698 25.9792 68.3906 26.25C68.4219 26.5208 68.4323 26.8385 68.4219 27.2031H65.0625V26.75Z" fill="#03CFAA"/>
<path d="M88.7812 37V27.0312C88.7812 25.9896 88.1979 25.4688 87.0312 25.4688C86.6667 25.4688 86.375 25.5781 86.1562 25.7969C85.9375 26.0052 85.7656 26.2656 85.6406 26.5781C85.526 26.8906 85.4479 27.2292 85.4062 27.5938C85.3646 27.9479 85.3438 28.2656 85.3438 28.5469V32.2656H86.5938V37H77.2969V32.3281H78.4375V25.1094H77.2812V20.25H85.3438V22.9062C85.6979 22.4167 86.099 21.9896 86.5469 21.625C87.0052 21.25 87.4844 20.9375 87.9844 20.6875C88.4844 20.4375 88.9948 20.25 89.5156 20.125C90.0365 20 90.5469 19.9375 91.0469 19.9375C91.9219 19.9375 92.724 20.2083 93.4531 20.75C94.1927 21.2917 94.7865 22.0677 95.2344 23.0781C96.6406 20.9844 98.4583 19.9375 100.688 19.9375C101.417 19.9375 102.109 20.0417 102.766 20.25C103.432 20.4583 104.016 20.7917 104.516 21.25C105.016 21.6979 105.411 22.2812 105.703 23C106.005 23.7188 106.156 24.5885 106.156 25.6094V32.2344H107.312V37H99.0469V27.0781C98.9948 26.5781 98.8385 26.1719 98.5781 25.8594C98.3177 25.5469 97.9531 25.3906 97.4844 25.3906C97.151 25.3906 96.8698 25.4583 96.6406 25.5938C96.4115 25.7188 96.2188 25.901 96.0625 26.1406C95.9167 26.3698 95.8073 26.6406 95.7344 26.9531C95.6615 27.2656 95.6198 27.599 95.6094 27.9531V32.2344H96.9375V37H88.7812ZM108.688 32.1875C108.688 33.7396 109.276 34.9792 110.453 35.9062C111.641 36.8229 113.078 37.2812 114.766 37.2812C115.62 37.2812 116.5 37.0938 117.406 36.7188C118.312 36.3438 119.026 35.8177 119.547 35.1406L120.328 37H127.703V32.2344H126.516V25.2812C126.516 24.5625 126.38 23.9167 126.109 23.3438C125.849 22.7604 125.521 22.2865 125.125 21.9219C124.74 21.5573 124.25 21.2448 123.656 20.9844C123.073 20.7135 122.526 20.5156 122.016 20.3906C121.516 20.2552 120.938 20.151 120.281 20.0781C119.635 20.0052 119.141 19.9635 118.797 19.9531C118.453 19.9427 118.068 19.9375 117.641 19.9375C116.526 19.9375 115.339 20.0312 114.078 20.2188C112.818 20.3958 111.839 20.5729 111.141 20.75L110.094 21.0312V25.9375H112.828C113.578 24.9479 114.698 24.4531 116.188 24.4531C118.385 24.4531 119.484 25.3177 119.484 27.0469V27.75C118.339 27.3542 117.005 27.1562 115.484 27.1562C114.62 27.1562 113.786 27.2656 112.984 27.4844C112.193 27.6927 111.474 28 110.828 28.4062C110.182 28.8125 109.661 29.3438 109.266 30C108.88 30.6562 108.688 31.3854 108.688 32.1875ZM116.344 31.9062C116.344 31.4583 116.505 31.0573 116.828 30.7031C117.151 30.3385 117.536 30.1562 117.984 30.1562C118.214 30.1562 118.453 30.1823 118.703 30.2344C118.964 30.2865 119.167 30.3438 119.312 30.4062L119.531 30.4844V32.7812C119.49 32.8333 119.427 32.901 119.344 32.9844C119.26 33.0573 119.073 33.1615 118.781 33.2969C118.49 33.4323 118.177 33.5 117.844 33.5C117.385 33.5 117.021 33.3542 116.75 33.0625C116.479 32.7604 116.344 32.375 116.344 31.9062ZM141.297 31.5625C140.641 31.7083 140.078 31.7812 139.609 31.7812C139.026 31.7812 138.625 31.6146 138.406 31.2812C138.188 30.9375 138.078 30.5625 138.078 30.1562L138.094 25.1094H140.469V20.25H138.094V15.0312L130.484 16.6719V20.25H128.875V25.1094H130.562L130.547 30.9844C130.526 35.1823 132.505 37.2812 136.484 37.2812C137.318 37.2812 138.135 37.1927 138.938 37.0156C139.74 36.849 140.333 36.6771 140.719 36.5L141.297 36.2344V31.5625ZM142.547 28.4531C142.547 25.7448 143.385 23.651 145.062 22.1719C146.74 20.6927 149.031 19.9531 151.938 19.9531C154.865 19.9531 157.167 20.6927 158.844 22.1719C160.521 23.651 161.359 25.7448 161.359 28.4531C161.359 30.276 160.958 31.8594 160.156 33.2031C159.365 34.5469 158.26 35.5625 156.844 36.25C155.438 36.9375 153.807 37.2812 151.953 37.2812C150.099 37.2812 148.464 36.9375 147.047 36.25C145.641 35.5625 144.536 34.5469 143.734 33.2031C142.943 31.8594 142.547 30.276 142.547 28.4531ZM149.812 28.4844C149.812 31.099 150.526 32.4062 151.953 32.4062C153.38 32.4062 154.094 31.099 154.094 28.4844C154.094 27.9531 154.068 27.5052 154.016 27.1406C153.974 26.7656 153.885 26.3854 153.75 26C153.615 25.6146 153.396 25.3229 153.094 25.125C152.792 24.9271 152.411 24.8281 151.953 24.8281C151.495 24.8281 151.115 24.9271 150.812 25.125C150.51 25.3229 150.292 25.6146 150.156 26C150.021 26.3854 149.927 26.7656 149.875 27.1406C149.833 27.5052 149.812 27.9531 149.812 28.4844Z" fill="#FF3D00"/>
<ellipse cx="154.5" cy="19.0669" rx="4.5" ry="3" fill="#03CFAA"/>
<ellipse cx="4.67158" cy="2.67231" rx="4.67158" ry="2.67231" transform="matrix(-0.954316 -0.298799 0.223507 -0.974702 152.917 23.0011)" fill="#03CFAA"/>
<ellipse cx="152" cy="28" rx="4" ry="6" fill="#FF3D00"/>
</svg>
