<svg width="33" height="22" viewBox="0 0 33 22" fill="none" xmlns="http://www.w3.org/2000/svg">
<g clip-path="url(#clip0_670_459)">
<path d="M12.4362 15.7059C11.8122 15.8431 11.2773 15.9117 10.8315 15.9117C10.2769 15.9117 9.89545 15.7549 9.68748 15.4411C9.47947 15.1176 9.37547 14.7647 9.37547 14.3823L9.39032 9.63237H11.6488V5.05882H9.39032V0.147003L2.15441 1.69119V5.05882H0.624023V9.63237H2.2287L2.21384 15.1618C2.19403 19.1127 4.07606 21.0882 7.85993 21.0882C8.65237 21.0882 9.42994 21.0049 10.1927 20.8382C10.9553 20.6814 11.52 20.5196 11.8865 20.3529L12.4362 20.103V15.7059Z" fill="#03CFAA"/>
<path d="M15 12.7794C15 10.2304 15.7969 8.25976 17.3916 6.86767C18.9872 5.47548 21.1658 4.77939 23.9301 4.77939C26.7134 4.77939 28.9025 5.47548 30.4971 6.86767C32.0918 8.25976 32.8887 10.2304 32.8887 12.7794C32.8887 14.4951 32.5074 15.9853 31.7448 17.25C30.9926 18.5147 29.9418 19.4706 28.5953 20.1176C27.2583 20.7647 25.7074 21.0882 23.9444 21.0882C22.1814 21.0882 20.6266 20.7647 19.2791 20.1176C17.9422 19.4706 16.8914 18.5147 16.1287 17.25C15.3766 15.9853 15 14.4951 15 12.7794ZM21.9084 12.8088C21.9084 15.2696 22.5874 16.5 23.9444 16.5C25.3013 16.5 25.9803 15.2696 25.9803 12.8088C25.9803 12.3088 25.9556 11.8872 25.9061 11.5441C25.8662 11.1912 25.7815 10.8333 25.6532 10.4706C25.5248 10.1079 25.3165 9.83332 25.0294 9.64706C24.7422 9.4608 24.3799 9.36762 23.9444 9.36762C23.5088 9.36762 23.1475 9.4608 22.8594 9.64706C22.5722 9.83332 22.3649 10.1079 22.2356 10.4706C22.1072 10.8333 22.0178 11.1912 21.9683 11.5441C21.9284 11.8872 21.9084 12.3088 21.9084 12.8088Z" fill="#FF3D00"/>
<path d="M26.3665 6.76885C28.7298 6.76885 30.6457 5.50472 30.6457 3.94533C30.6457 2.38593 28.7298 1.1218 26.3665 1.1218C24.0032 1.1218 22.0874 2.38593 22.0874 3.94533C22.0874 5.50472 24.0032 6.76885 26.3665 6.76885Z" fill="#03CFAA"/>
<path d="M21.7579 1.43137C19.4166 0.705806 17.2643 1.21519 16.9506 2.56911C16.6369 3.92303 18.2806 5.60878 20.622 6.33435C22.9633 7.05991 25.1156 6.55053 25.4293 5.19661C25.743 3.84269 24.0992 2.15694 21.7579 1.43137Z" fill="#03CFAA"/>
<path d="M23.9892 18C26.0899 18 27.7929 15.4717 27.7929 12.3529C27.7929 9.23415 26.0899 6.70587 23.9892 6.70587C21.8885 6.70587 20.1855 9.23415 20.1855 12.3529C20.1855 15.4717 21.8885 18 23.9892 18Z" fill="#FF3D00"/>
</g>
<defs>
<clipPath id="clip0_670_459">
<rect width="33" height="22" fill="white"/>
</clipPath>
</defs>
</svg>
